<?xml version="1.0" encoding="UTF-8" standalone="no"?>
<!-- Created with Inkscape (http://www.inkscape.org/) -->

<svg
   width="38.824184mm"
   height="39.835175mm"
   viewBox="0 0 38.824184 39.835175"
   version="1.1"
   id="svg1"
   xml:space="preserve"
   xmlns="http://www.w3.org/2000/svg"
   xmlns:svg="http://www.w3.org/2000/svg"><defs
     id="defs1" /><g
     id="layer1"
     transform="translate(-35.960973,-114.50865)"><g
       id="g14"
       transform="matrix(-1,0,0,1,165.80232,-1.9929851)"><path
         transform="matrix(-0.07505435,-0.09699625,0.09699625,-0.07505435,65.507346,230.71495)"
         d="m 420,608.56 v 32.375 c 54.264,13.808 94.438,63.02 94.438,121.56 2e-5,69.237 -56.201,125.44 -125.44,125.44 -64.845,1e-5 -118.24,-49.305 -124.75,-112.44 H 232.56 c 6.6229,80.582 74.156,144 156.44,144 86.664,0 157,-70.336 157,-157 -2e-5,-76.052 -54.168,-139.53 -126,-153.94 z"
         fill="#2e3436"
         id="path13"
         style="fill:#000000;fill-opacity:1;stroke:none;stroke-opacity:1" /><path
         transform="matrix(-0.02599423,-0.02401029,0.02401029,-0.02599423,127.21863,168.30091)"
         d="M 746,438.36 224,351.742 560.02,-57.018 746.01,438.362 Z"
         fill="#2e3436"
         id="path14"
         style="display:inline;fill:#000000;fill-opacity:1;stroke:none;stroke-opacity:1" /><path
         d="m 155.28746,98.445128 q 0,3.840002 -2.13333,6.133332 -2.13334,2.24 -5.76,2.98666 v 0.21334 q 4.58666,0.53333 6.82666,2.87999 2.24,2.34667 2.24,6.13333 0,3.30667 -1.54666,5.92 -1.54667,2.56 -4.8,4 -3.2,1.44 -8.26666,1.44 -2.98667,0 -5.54667,-0.48 -2.56,-0.42667 -4.90666,-1.6 v -4.37333 q 2.4,1.17333 5.17333,1.86666 2.77333,0.64 5.33333,0.64 5.12,0 7.36,-1.97333 2.29333,-2.02666 2.29333,-5.54666 0,-3.57333 -2.82667,-5.12 -2.77333,-1.6 -7.83999,-1.6 h -3.68 v -4 h 3.73333 q 4.69333,0 7.09333,-1.97333 2.45333,-1.97333 2.45333,-5.226662 0,-2.773331 -1.86666,-4.266664 -1.86667,-1.546666 -5.06667,-1.546666 -3.09333,0 -5.27999,0.906667 -2.18667,0.906666 -4.32,2.293331 l -2.34667,-3.199998 q 2.02667,-1.599999 5.01333,-2.773331 3.04,-1.173333 6.88,-1.173333 5.97333,0 8.85333,2.666665 2.93333,2.666665 2.93333,6.773329 z m 32.10667,10.079992 q 0,6.13333 -1.28,10.56 -1.28,4.37333 -4.05333,6.71999 -2.77333,2.34667 -7.35999,2.34667 -6.45333,0 -9.54666,-5.17333 -3.04,-5.22667 -3.04,-14.45333 0,-6.18666 1.22666,-10.559991 1.28,-4.373331 4.05333,-6.666663 2.77334,-2.346665 7.30667,-2.346665 6.39999,0 9.54666,5.17333 3.14666,5.119997 3.14666,14.399989 z m -20.58665,0 q 0,7.84 1.76,11.73333 1.81333,3.89333 6.13333,3.89333 4.26666,0 6.07999,-3.84 1.86667,-3.89333 1.86667,-11.78666 0,-7.78666 -1.86667,-11.679991 -1.81333,-3.893331 -6.07999,-3.893331 -4.32,0 -6.13333,3.893331 -1.76,3.893331 -1.76,11.679991 z"
         id="text14"
         style="font-size:53.3333px;font-family:'Noto Sans Marchen';-inkscape-font-specification:'Noto Sans Marchen';white-space:pre;stroke-width:9.44882;stroke-linecap:round"
         transform="matrix(-0.26458333,0,0,0.26458333,152.60229,103.71225)"
         aria-label="30" /></g></g></svg>
