<?xml version="1.0" encoding="UTF-8" standalone="no"?>
<!-- Created with Inkscape (http://www.inkscape.org/) -->

<svg
   width="127.55551mm"
   height="129.99567mm"
   viewBox="0 0 127.55551 129.99567"
   version="1.1"
   id="svg1"
   xml:space="preserve"
   xmlns="http://www.w3.org/2000/svg"
   xmlns:svg="http://www.w3.org/2000/svg"><defs
     id="defs1" /><g
     id="g117"
     style="display:inline;stroke-width:3.9;stroke-dasharray:none"
     transform="translate(-39.997487,-83.495412)"><g
       id="path117"
       style="opacity:1"><path
         style="baseline-shift:baseline;display:inline;overflow:visible;vector-effect:none;stroke-linecap:round;stroke-miterlimit:1.4;enable-background:accumulate;stop-color:#000000;stop-opacity:1"
         d="m 102.91992,83.529297 c -3.363939,0.107843 -6.749321,0.478781 -10.128904,1.125 -27.036666,5.169749 -47.912804,26.853013 -52.052735,54.066403 -4.13993,27.21339 9.3449,54.12567 33.621094,67.10157 24.276195,12.97589 54.143625,9.235 74.470705,-9.32618 a 5,5 0 0 0 0.32031,-7.0625 5,5 0 0 0 -7.06445,-0.32226 C 124.86179,204.83914 99.642696,207.99707 79.072266,197.00195 58.501836,186.00683 47.11703,163.28387 50.625,140.22461 54.132969,117.16535 71.760407,98.857148 94.669922,94.476562 117.57944,90.095977 140.71844,100.60972 152.48633,120.74805 a 5,5 0 0 0 6.83984,1.79492 5,5 0 0 0 1.79492,-6.83984 C 148.9692,94.907661 126.46751,82.774395 102.91992,83.529297 Z"
         id="path122" /><g
         id="g119"><g
           id="path119"
           style="opacity:1"><path
             style="baseline-shift:baseline;display:inline;overflow:visible;vector-effect:none;fill-rule:evenodd;enable-background:accumulate;stop-color:#000000;stop-opacity:1"
             d="m 165.53669,133.17068 -26.04343,-14.8372 25.90186,-15.13583 z"
             id="path120" /><path
             style="baseline-shift:baseline;display:inline;overflow:visible;vector-effect:none;fill-rule:evenodd;enable-background:accumulate;stop-color:#000000;stop-opacity:1"
             d="m 167.37891,99.722656 -31.88672,18.632814 32.06054,18.26562 z m -3.96875,6.951174 0.11132,23.04687 -20.02734,-11.4082 z"
             id="path121" /></g></g></g><g
       id="text117"
       style="opacity:1"
       transform="matrix(0.26458333,0,0,0.26458333,2.2672539,63.278506)"><path
         style="font-size:192px;font-family:Vazir;-inkscape-font-specification:Vazir;baseline-shift:baseline;white-space:pre;display:inline;overflow:visible;vector-effect:none;stroke-linecap:round;paint-order:stroke fill markers;enable-background:accumulate;stop-color:#000000;stop-opacity:1"
         d="m 333.53125,248.94922 c -6.62439,0 -12.75174,1.05208 -18.31836,3.19531 -8.4e-4,3.2e-4 -0.001,0.002 -0.002,0.002 -5.44365,2.0583 -10.20289,4.94713 -14.18946,8.65821 -0.001,0.001 -0.003,0.003 -0.004,0.004 -3.98526,3.64856 -7.09234,7.98245 -9.25586,12.91797 -2.17121,4.95306 -3.25391,10.29964 -3.25391,15.9336 v 3.02343 h 23.39063 v -3.02343 c 0,-3.22655 0.53346,-6.03425 1.55273,-8.50196 l 0.004,-0.0117 0.004,-0.01 c 1.04199,-2.57755 2.44659,-4.65159 4.23829,-6.33789 h 0.002 v -0.002 c 1.87408,-1.76699 4.07916,-3.10294 6.7168,-4.0371 l 0.0156,-0.006 0.0176,-0.006 c 2.6938,-0.98956 5.70202,-1.50196 9.08203,-1.50196 7.54684,0 12.58671,1.87256 15.8125,5.25196 l 0.008,0.008 0.008,0.008 c 3.26336,3.36696 5.05469,8.40445 5.05469,15.70899 0,3.03675 -0.50128,5.768 -1.47851,8.26757 -0.96114,2.39619 -2.37392,4.463 -4.3086,6.29493 -1.90571,1.74272 -4.33239,3.16762 -7.38086,4.24023 -2.97811,1.04785 -6.57456,1.61133 -10.80859,1.61133 h -15.39844 v 20.20312 h 15.39844 c 4.21037,0 7.9356,0.475 11.18359,1.38672 3.21893,0.90356 5.84513,2.24914 7.98633,4.01563 l 0.0312,0.0254 0.0332,0.0254 c 2.16715,1.69143 3.80615,3.81261 4.99805,6.52148 1.1715,2.66251 1.80664,5.92178 1.80664,9.84571 0,3.96838 -0.55777,7.32407 -1.59179,10.09961 -1.04614,2.80805 -2.50405,5.03702 -4.39844,6.82617 -1.91036,1.80422 -4.21197,3.16496 -7.01953,4.10351 -2.83533,0.88524 -6.1081,1.35352 -9.8418,1.35352 -3.71654,0 -6.96221,-0.52274 -9.77539,-1.51563 -2.84325,-1.00349 -5.17706,-2.38658 -7.10156,-4.14648 -1.93729,-1.83409 -3.39064,-3.94557 -4.41797,-6.42969 -1.02537,-2.5409 -1.55664,-5.3817 -1.55664,-8.60351 v -3.02344 h -23.48438 v 3.02344 c 0,6.43655 1.20297,12.31196 3.66602,17.51171 l 0.01,0.0234 0.0117,0.0215 c 2.49108,5.04948 5.89834,9.38108 10.16211,12.90039 l 0.01,0.008 0.0117,0.01 c 4.24548,3.43681 9.18945,6.05001 14.75781,7.83984 l 0.0156,0.006 0.0156,0.006 c 5.55757,1.7202 11.46244,2.57226 17.67578,2.57226 6.47256,0 12.52521,-0.91856 18.11328,-2.78125 l 0.0137,-0.004 0.0156,-0.006 c 5.58031,-1.92654 10.50467,-4.71627 14.6875,-8.35938 4.21318,-3.66955 7.51911,-8.21467 9.87109,-13.52343 l 0.004,-0.008 0.002,-0.006 c 2.37664,-5.43232 3.53516,-11.55259 3.53516,-18.27343 0,-3.30933 -0.40563,-6.67071 -1.20508,-10.06836 -0.82796,-3.51882 -2.24751,-6.87139 -4.22852,-10.01368 -2.01998,-3.20411 -4.71915,-6.05629 -8.01757,-8.55273 -1.75733,-1.38867 -3.74322,-2.59656 -5.90235,-3.66797 1.57629,-0.9784 3.07471,-2.02326 4.42774,-3.1875 l 0.002,-0.002 0.002,-0.002 c 2.9374,-2.53685 5.35717,-5.28508 7.22266,-8.25 1.88604,-2.89977 3.29686,-5.91212 4.19726,-9.01954 0.94474,-3.04807 1.43946,-6.02912 1.43946,-8.92382 0,-6.6912 -1.0489,-12.692 -3.23047,-17.94141 -2.15371,-5.18237 -5.24078,-9.58922 -9.21485,-13.08984 -3.89769,-3.55029 -8.6084,-6.19916 -14.01953,-7.9375 -5.40712,-1.79934 -11.35513,-2.67969 -17.80859,-2.67969 z m 109.59375,0 c -6.86966,0 -13.18025,1.04872 -18.87695,3.19336 l -0.006,0.002 -0.006,0.002 c -5.75077,2.19077 -10.72103,5.86382 -14.77149,10.85938 -4.08696,5.04059 -7.14533,11.52834 -9.28906,19.38867 l -0.002,0.0117 -0.004,0.0117 c -2.09422,7.91878 -3.09961,17.53076 -3.09961,28.89844 v 20.8125 c 0,11.37331 1.03964,21.05365 3.19727,29.0957 v 0.002 l 0.002,0.004 c 2.14178,7.9181 5.19315,14.49049 9.26367,19.64648 l 0.006,0.008 0.006,0.008 c 4.04996,5.06245 9.05216,8.79936 14.86133,11.05469 5.70407,2.21452 12.02699,3.29882 18.90625,3.29882 6.93577,0 13.25914,-1.08195 18.91016,-3.30078 5.80945,-2.25629 10.78639,-5.99909 14.77539,-11.06836 l 0.004,-0.004 c 4.07392,-5.16178 7.09387,-11.74361 9.17188,-19.66602 l 0.002,-0.002 v -0.004 c 2.08999,-8.03339 3.09766,-17.70459 3.09766,-29.07226 v -20.8125 c 0,-11.36768 -1.00539,-20.97966 -3.09961,-28.89844 -2.08047,-7.86679 -5.10904,-14.36514 -9.20117,-19.41211 -4.05563,-5.00195 -9.06476,-8.67516 -14.87696,-10.86328 -5.70036,-2.14602 -12.04144,-3.19336 -18.9707,-3.19336 z m -109.59375,6.04687 c 5.91263,0 11.20606,0.80437 15.91797,2.375 l 0.0176,0.006 0.0156,0.006 c 4.7005,1.5088 8.60318,3.72753 11.82422,6.66602 l 0.0195,0.0195 0.0215,0.0176 c 3.2654,2.8713 5.79827,6.45747 7.64062,10.89062 1.81843,4.3756 2.76953,9.56229 2.76953,15.6211 0,2.21834 -0.37816,4.60028 -1.17578,7.16406 l -0.01,0.0293 -0.008,0.0293 c -0.72312,2.50313 -1.86907,4.97682 -3.47265,7.43946 l -0.0137,0.0215 -0.0137,0.0195 c -1.50746,2.40077 -3.5177,4.70785 -6.07226,6.91406 -2.41491,2.07713 -5.34585,3.85391 -8.8418,5.31055 l -7.59961,3.16602 7.8418,2.5039 c 4.22574,1.34989 7.63705,3.10639 10.29297,5.20899 l 0.0273,0.0215 0.0273,0.0215 c 2.81054,2.12224 4.97835,4.44598 6.57618,6.98046 1.64399,2.60772 2.78694,5.31765 3.45898,8.17383 0.70055,2.97735 1.04492,5.86792 1.04492,8.6836 0,6.02747 -1.02813,11.27891 -3.02539,15.8457 -5.6e-4,10e-4 -0.001,0.003 -0.002,0.004 -2.02251,4.56065 -4.77694,8.32273 -8.31055,11.40039 -3.56364,3.10381 -7.76043,5.4991 -12.67383,7.19726 -4.90791,1.63402 -10.28713,2.4668 -16.18359,2.4668 -5.65518,0 -10.93159,-0.77251 -15.86914,-2.29883 -4.92291,-1.58415 -9.16045,-3.84227 -12.78516,-6.77539 -3.5958,-2.97197 -6.42756,-6.56595 -8.55664,-10.87305 -1.64612,-3.48128 -2.46395,-7.50496 -2.7832,-11.88086 h 11.36133 c 0.25851,2.75616 0.74969,5.41876 1.73633,7.85938 l 0.004,0.01 0.004,0.0117 c 1.34439,3.25484 3.32318,6.13292 5.875,8.54297 l 0.0156,0.0156 0.0176,0.0156 c 2.57242,2.35805 5.66956,4.15865 9.19336,5.40235 3.56182,1.25711 7.50365,1.86132 11.78711,1.86132 4.25197,0 8.15337,-0.53053 11.68555,-1.63867 l 0.0273,-0.008 0.0254,-0.01 c 3.55871,-1.18623 6.6901,-3.00951 9.27539,-5.45117 2.60561,-2.46085 4.5852,-5.54438 5.91406,-9.11133 1.34098,-3.59946 1.97071,-7.67932 1.97071,-12.21093 0,-4.57608 -0.73986,-8.69376 -2.31836,-12.28125 -1.55212,-3.52755 -3.84369,-6.51725 -6.78516,-8.82227 -2.85253,-2.34517 -6.27427,-4.05992 -10.16601,-5.15234 -3.87701,-1.08829 -8.15178,-1.61133 -12.81641,-1.61133 h -9.35156 v -8.10938 h 9.35156 c 4.76597,0 9.04452,-0.62597 12.81641,-1.95312 3.69355,-1.29959 6.88452,-3.12201 9.47656,-5.49805 l 0.0176,-0.0156 0.0156,-0.0156 c 2.55122,-2.40949 4.50735,-5.2664 5.79297,-8.48047 l 0.006,-0.0117 0.004,-0.01 c 1.2713,-3.24889 1.89453,-6.76561 1.89453,-10.47656 0,-8.31343 -2.14448,-15.14676 -6.74805,-19.9043 -4.6492,-4.86708 -11.60647,-7.11914 -20.18164,-7.11914 -3.99141,0 -7.72952,0.61294 -11.1582,1.87109 -3.35118,1.19053 -6.32605,2.97303 -8.82032,5.32422 -2.45583,2.31137 -4.36248,5.17158 -5.69531,8.46484 -0.98983,2.39933 -1.4812,5.03765 -1.74023,7.77735 h -11.26563 c 0.30987,-3.68601 1.01461,-7.20971 2.44922,-10.48242 1.83574,-4.18778 4.41498,-7.78801 7.80274,-10.88868 l 0.01,-0.01 0.0117,-0.01 c 3.3837,-3.1543 7.4285,-5.63215 12.22461,-7.44531 l 0.01,-0.004 0.01,-0.004 c 4.8034,-1.85191 10.16894,-2.79688 16.16211,-2.79688 z m 109.59375,0 c 6.32074,0 11.91716,0.95071 16.8418,2.80469 4.8128,1.81188 8.86617,4.76562 12.31054,9.01367 3.40787,4.20303 6.1293,9.89023 8.04883,17.14844 1.90578,7.20621 2.90039,16.34619 2.90039,27.35352 v 20.8125 c 0,11.00732 -0.99233,20.20916 -2.90234,27.55078 -1.92134,7.32237 -4.64886,13.1129 -8.07227,17.44922 l -0.002,0.002 -0.002,0.002 c -3.38448,4.30231 -7.4047,7.30951 -12.2168,9.17774 l -0.006,0.002 -0.006,0.002 c -4.84713,1.90423 -10.3958,2.88477 -16.70703,2.88477 -6.24574,0 -11.79782,-0.9782 -16.71875,-2.88867 -4.81045,-1.86759 -8.8669,-4.87681 -12.31445,-9.18164 l -0.002,-0.004 c -3.42696,-4.34199 -6.18736,-10.14071 -8.16992,-17.4668 v -0.004 c -4.1e-4,-0.002 -0.002,-0.002 -0.002,-0.004 -1.96615,-7.33179 -2.98828,-16.5233 -2.98828,-27.52148 v -20.8125 c 0,-11.00122 0.99473,-20.13549 2.89843,-27.33985 1.98106,-7.25939 4.73323,-12.95483 8.14454,-17.16211 3.44854,-4.25321 7.47716,-7.20625 12.22461,-9.01562 10e-4,-5.3e-4 0.003,-10e-4 0.004,-0.002 4.92553,-1.85258 10.48572,-2.80078 16.73633,-2.80078 z m 0,8.20313 c -4.4915,0 -8.63815,0.82337 -12.33008,2.52734 l -0.01,0.004 -0.01,0.006 c -3.7369,1.75854 -6.87163,4.63838 -9.3125,8.40429 l -0.004,0.006 -0.004,0.006 c -2.39539,3.73399 -4.11138,8.41819 -5.28906,14.04493 -1.18422,5.65791 -1.75196,12.37789 -1.75196,20.21289 v 26.4375 c 0,7.7737 0.56807,14.5242 1.74805,20.29296 l 0.002,0.004 v 0.002 c 1.1777,5.69222 2.92823,10.49727 5.36524,14.39649 l 0.01,0.0176 0.0117,0.0156 c 2.48611,3.86728 5.61258,6.85289 9.32617,8.7461 l 0.01,0.006 0.0117,0.004 c 3.70767,1.85384 7.89202,2.75781 12.41406,2.75781 4.63536,0 8.85735,-0.8956 12.5293,-2.76757 3.72351,-1.89827 6.80566,-4.91151 9.16992,-8.80079 2.43755,-3.90677 4.15541,-8.71455 5.26758,-14.40625 l 0.002,-0.004 v -0.004 c 1.11186,-5.75549 1.64844,-12.49432 1.64844,-20.25976 v -26.4375 c 0,-7.83258 -0.56849,-14.55021 -1.75196,-20.20704 -3.9e-4,-0.002 4e-4,-0.004 0,-0.006 -1.11516,-5.62543 -2.83594,-10.32168 -5.30468,-14.06446 -2.44496,-3.7688 -5.61694,-6.648 -9.40821,-8.40039 -3.64681,-1.71421 -7.7952,-2.5332 -12.33984,-2.5332 z m 0,6.04687 c 3.82647,0 7.04946,0.67815 9.77539,1.96094 l 0.01,0.006 0.01,0.004 c 2.70094,1.24658 4.95974,3.23983 6.88672,6.21289 l 0.008,0.01 0.006,0.0117 c 1.89714,2.8728 3.42278,6.84751 4.43164,11.95117 l 0.004,0.0156 0.004,0.0176 c 1.06578,5.09208 1.62304,11.4346 1.62304,18.97461 v 26.4375 c 0,7.48455 -0.52592,13.86877 -1.53906,19.11328 -1.01103,5.17092 -2.5404,9.28846 -4.4707,12.37695 l -0.01,0.0176 -0.01,0.0156 c -1.88468,3.10417 -4.11066,5.21297 -6.75782,6.5625 -2.70305,1.37803 -5.91856,2.10938 -9.7832,2.10938 -3.72145,0 -6.90647,-0.72191 -9.69531,-2.11328 -2.65235,-1.35365 -4.95596,-3.48565 -6.96485,-6.60352 -1.93424,-3.09834 -3.49336,-7.22438 -4.56445,-12.39844 -1.07002,-5.23123 -1.62695,-11.60378 -1.62695,-19.08007 v -26.4375 c 0,-7.54001 0.55726,-13.88253 1.62304,-18.97461 1.07175,-5.12054 2.6057,-9.12106 4.45899,-12.01172 1.93052,-2.97607 4.16542,-4.97019 6.79687,-6.21094 2.80591,-1.29324 6.03079,-1.9668 9.78516,-1.9668 z"
         id="path123" /><path
         style="font-size:192px;font-family:Vazir;-inkscape-font-specification:Vazir;baseline-shift:baseline;white-space:pre;display:inline;overflow:visible;vector-effect:none;stroke-linecap:round;paint-order:stroke fill markers;enable-background:accumulate;stop-color:#000000;stop-opacity:1"
         d="m 318.0625,313.65949 h 12.375 q 6.75,0 11.8125,-1.78125 5.0625,-1.78125 8.4375,-4.875 3.375,-3.1875 5.0625,-7.40625 1.6875,-4.3125 1.6875,-9.375 0,-11.71875 -5.90625,-17.8125 -5.90625,-6.1875 -18,-6.1875 -5.53125,0 -10.125,1.6875 -4.5,1.59375 -7.78125,4.6875 -3.1875,3 -4.96875,7.40625 -1.78125,4.3125 -1.78125,9.65625 h -17.34375 q 0,-7.875 3,-14.71875 3,-6.84375 8.53125,-11.90625 5.53125,-5.15625 13.21875,-8.0625 7.78125,-3 17.25,-3 9.28125,0 16.875,2.53125 7.59375,2.4375 12.9375,7.3125 5.4375,4.78125 8.4375,12 3,7.21875 3,16.78125 0,3.84375 -1.3125,8.0625 -1.21875,4.21875 -3.84375,8.25 -2.53125,4.03125 -6.65625,7.59375 -4.03125,3.46875 -9.65625,5.8125 6.75,2.15625 11.25,5.71875 4.59375,3.46875 7.3125,7.78125 2.71875,4.3125 3.84375,9.09375 1.125,4.78125 1.125,9.375 0,9.5625 -3.28125,17.0625 -3.28125,7.40625 -9.09375,12.46875 -5.8125,5.0625 -13.6875,7.78125 -7.875,2.625 -17.15625,2.625 -8.90625,0 -16.78125,-2.4375 -7.875,-2.53125 -13.78125,-7.3125 -5.90625,-4.875 -9.375,-11.90625 -3.375,-7.125 -3.375,-16.21875 H 307.75 q 0,5.34375 1.78125,9.75 1.78125,4.3125 5.15625,7.5 3.375,3.09375 8.15625,4.78125 4.78125,1.6875 10.78125,1.6875 6,0 10.78125,-1.5 4.78125,-1.59375 8.15625,-4.78125 3.375,-3.1875 5.15625,-7.96875 1.78125,-4.78125 1.78125,-11.15625 0,-6.375 -2.0625,-11.0625 -2.0625,-4.6875 -5.90625,-7.6875 -3.75,-3.09375 -9.09375,-4.59375 -5.34375,-1.5 -12,-1.5 h -12.375 z M 486.25,332.12824 q 0,16.78125 -3,28.3125 -3,11.4375 -8.625,18.5625 -5.53125,7.03125 -13.5,10.125 -7.875,3.09375 -17.8125,3.09375 -9.84375,0 -17.8125,-3.09375 -7.96875,-3.09375 -13.59375,-10.125 -5.625,-7.125 -8.71875,-18.5625 -3.09375,-11.53125 -3.09375,-28.3125 v -20.8125 q 0,-16.78125 3,-28.125 3.09375,-11.34375 8.71875,-18.28125 5.625,-6.9375 13.5,-9.9375 7.96875,-3 17.8125,-3 9.9375,0 17.90625,3 7.96875,3 13.59375,9.9375 5.625,6.9375 8.625,18.28125 3,11.34375 3,28.125 z m -17.34375,-23.71875 q 0,-11.53125 -1.6875,-19.59375 -1.59375,-8.0625 -4.875,-13.03125 -3.28125,-5.0625 -8.15625,-7.3125 -4.78125,-2.25 -11.0625,-2.25 -6.1875,0 -11.0625,2.25 -4.78125,2.25 -8.0625,7.3125 -3.1875,4.96875 -4.875,13.03125 -1.6875,8.0625 -1.6875,19.59375 v 26.4375 q 0,11.4375 1.6875,19.6875 1.6875,8.15625 4.96875,13.40625 3.375,5.25 8.15625,7.6875 4.875,2.4375 11.0625,2.4375 6.375,0 11.15625,-2.4375 4.78125,-2.4375 7.96875,-7.6875 3.28125,-5.25 4.875,-13.40625 1.59375,-8.25 1.59375,-19.6875 z"
         id="path124" /></g></g></svg>
