<?xml version="1.0" encoding="UTF-8" standalone="no"?>
<svg
   version="1.1"
   viewBox="0 0 24 24"
   id="svg1"
   width="24"
   height="24"
   xmlns="http://www.w3.org/2000/svg"
   xmlns:svg="http://www.w3.org/2000/svg">
  <defs
     id="defs1" />
  <g
     transform="matrix(0.04295679,0,0,0.04295679,1.6301214,-21.974353)"
     id="g1"
     style="fill:#000000;fill-opacity:1">
    <path
       d="m 380.24,566.95 a 62.704,62.704 0 0 0 -62.704,62.704 62.704,62.704 0 0 0 1.956,15.302 l -173.93,100.42 a 62.704,62.704 0 0 0 -43.011,-17.184 62.704,62.704 0 0 0 -62.704,62.704 62.704,62.704 0 0 0 62.704,62.704 62.704,62.704 0 0 0 43.05,-17.163 l 173.91,100.41 a 62.704,62.704 0 0 0 -1.9735,15.291 62.704,62.704 0 0 0 62.704,62.704 62.704,62.704 0 0 0 62.704,-62.704 62.704,62.704 0 0 0 -62.704,-62.704 62.704,62.704 0 0 0 -42.42,16.61 l -174.32,-100.66 a 62.704,62.704 0 0 0 1.7706,-14.493 62.704,62.704 0 0 0 -1.774,-14.493 l 174.35,-100.66 a 62.704,62.704 0 0 0 42.406,16.621 62.704,62.704 0 0 0 62.704,-62.704 62.704,62.704 0 0 0 -62.704,-62.704 z"
       fill="#0000ff"
       fill-rule="evenodd"
       id="path1"
       style="fill:#000000;fill-opacity:1" />
  </g>
</svg>
