<?xml version="1.0" encoding="UTF-8" standalone="no"?>
<svg
   version="1.1"
   viewBox="0 0 24 24"
   id="svg6"
   width="24"
   height="24"
   xmlns="http://www.w3.org/2000/svg"
   xmlns:svg="http://www.w3.org/2000/svg">
  <defs
     id="defs6" />
  <g
     fill="#b55e28"
     id="g5"
     transform="matrix(0.10964582,0,0,0.10964582,-21.099835,-41.851953)"
     style="fill:#000000;fill-opacity:1">
    <path
       d="m 285.73,407.42 c -2.5701,1.1309 -4.0093,2.7758 -5.6542,6.6823 l -2.1589,5.1403 h -17.168 c -16.963,0 -17.065,0 -19.738,2.6729 -2.6728,2.6729 -4.4205,7.8132 -3.2896,9.6636 0.82236,1.2337 127.58,1.4392 128.4,0.20562 1.1309,-1.7477 -1.542,-8.43 -4.215,-10.486 -2.3644,-1.8505 -4.1121,-2.0561 -19.533,-2.0561 h -16.757 l -1.028,-2.8785 c -3.4954,-9.4581 -5.7571,-10.486 -22.822,-10.486 -8.7383,0.10285 -13.673,0.51404 -16.037,1.5421 z"
       id="path4"
       style="fill:#000000;fill-opacity:1" />
    <path
       d="m 245.95,438.78 c -0.61688,1.0281 1.1308,28.991 4.1121,64.767 0.82241,9.8692 1.7476,22.617 2.0561,28.271 1.6448,28.066 3.2896,34.44 9.7663,39.888 5.3458,4.5235 9.1495,4.9347 42.458,4.6261 30.636,-0.3083 31.15,-0.3083 34.953,-2.7756 5.243,-3.187 8.7384,-8.7384 9.972,-15.524 0.51404,-3.0841 1.6448,-15.832 2.5701,-28.271 0.82244,-12.439 2.2616,-31.15 3.0842,-41.636 3.084,-39.991 3.5981,-48.421 3.084,-49.449 -0.82245,-1.3364 -111.23,-1.2336 -112.06,0.10284 z m 28.888,18.505 c 0.82237,1.6449 1.7476,18.197 2.5701,45.748 1.9533,57.673 1.8505,60.141 -0.3084,61.58 -3.0841,1.8506 -5.3458,-0.5139 -6.1683,-6.1682 -0.30834,-2.7756 -1.1308,-16.86 -1.7477,-31.253 -0.6167,-14.393 -1.6448,-35.57 -2.3644,-47.084 -1.3364,-23.542 -0.8224,-26.318 4.1121,-25.701 1.7478,0.20553 3.187,1.2336 3.9066,2.8785 z m 30.636,-0.71962 c 1.3364,2.0561 1.4392,9.1496 0.8223,54.589 -0.61675,48.215 -0.8223,52.43 -2.4672,53.458 -1.3364,0.82257 -2.3644,0.82257 -3.5982,0 -1.7477,-1.028 -1.9533,-5.243 -2.6729,-53.253 -0.82239,-47.085 -0.71953,-52.328 0.71961,-54.589 2.159,-3.1869 5.243,-3.2897 7.1964,-0.2056 z m 31.458,0.10274 c 0.92523,1.7478 1.1307,4.7291 0.61677,10.075 -0.30836,4.1122 -1.028,18.608 -1.6448,32.178 -1.7477,41.019 -3.2898,63.636 -4.3178,64.973 -0.6168,0.7194 -2.1589,1.3363 -3.4953,1.3363 -1.7477,0 -2.5701,-0.71975 -3.0842,-2.7758 -0.41114,-1.542 -0.20557,-16.449 0.41126,-33.103 0.71966,-16.757 1.542,-39.477 1.8505,-50.477 0.7196,-21.486 1.4393,-24.673 5.9626,-24.673 1.4392,0 2.8785,0.92516 3.7009,2.4672 z"
       id="path5"
       style="fill:#000000;fill-opacity:1" />
  </g>
</svg>
